# xmcd
#
# Track frame offsets:
#	150
#	15967
#	29946
#	48124
#	65824
#	81650
#	101063
#	118663
#	134706
#	150657
#
# Disc length: 2244 seconds
#
# Revision: 0
# Processed by: cddbd v1.4PL0 Copyright (c) Steve Scherf et al.
# Submitted via: dBpowerAMP V4.0
#
DISCID=8e08c20a
DTITLE=Malena Gracia - Loca
DYEAR=1900
DGENRE=
TTITLE0=Loca
TTITLE1=Dandy
TTITLE2=Muchachito
TTITLE3=Mi vida sin tu amor
TTITLE4=Fresa
TTITLE5=Cenizas de placer
TTITLE6=Nadie va a extrañarme mas
TTITLE7=Sin garantia de amor
TTITLE8=Besos de amor
TTITLE9=Ven ven ven
EXTD=
EXTT0=
EXTT1=
EXTT2=
EXTT3=
EXTT4=
EXTT5=
EXTT6=
EXTT7=
EXTT8=
EXTT9=
PLAYORDER=
